<svg width="543" height="343" viewBox="0 0 543 343" fill="none" xmlns="http://www.w3.org/2000/svg">
<path d="M443.054 11.8362L10.351 74.3434L40.0117 279.669L472.715 217.161L443.054 11.8362Z" fill="#F1F1F1"/>
<path d="M433.225 31.2305L25.2677 90.163L50.0146 261.472L457.972 202.54L433.225 31.2305Z" fill="white"/>
<path d="M441.156 -4.68826e-05L8.45276 62.5072L11.1083 80.8898L443.812 18.3825L441.156 -4.68826e-05Z" fill="#E5E5E5"/>
<path d="M23.6747 74.7857C25.576 74.7857 27.1172 73.2445 27.1172 71.3432C27.1172 69.442 25.576 67.9007 23.6747 67.9007C21.7735 67.9007 20.2322 69.442 20.2322 71.3432C20.2322 73.2445 21.7735 74.7857 23.6747 74.7857Z" fill="white"/>
<path d="M36.6071 72.9176C38.5083 72.9176 40.0496 71.3763 40.0496 69.4751C40.0496 67.5738 38.5083 66.0326 36.6071 66.0326C34.7058 66.0326 33.1646 67.5738 33.1646 69.4751C33.1646 71.3763 34.7058 72.9176 36.6071 72.9176Z" fill="white"/>
<path d="M49.54 71.0493C51.4413 71.0493 52.9825 69.508 52.9825 67.6068C52.9825 65.7056 51.4413 64.1643 49.54 64.1643C47.6388 64.1643 46.0976 65.7056 46.0976 67.6068C46.0976 69.508 47.6388 71.0493 49.54 71.0493Z" fill="white"/>
<path d="M542.453 100.183H105.258V307.64H542.453V100.183Z" fill="#E6E6E6"/>
<path d="M529.952 117.973H117.76V291.06H529.952V117.973Z" fill="white"/>
<path d="M542.266 88.1971H105.072V106.77H542.266V88.1971Z" fill="#CBCBCB"/>
<path d="M118.874 102.561C120.775 102.561 122.316 101.02 122.316 99.1186C122.316 97.2174 120.775 95.6761 118.874 95.6761C116.973 95.6761 115.431 97.2174 115.431 99.1186C115.431 101.02 116.973 102.561 118.874 102.561Z" fill="white"/>
<path d="M131.94 102.561C133.842 102.561 135.383 101.02 135.383 99.1186C135.383 97.2174 133.842 95.6761 131.94 95.6761C130.039 95.6761 128.498 97.2174 128.498 99.1186C128.498 101.02 130.039 102.561 131.94 102.561Z" fill="white"/>
<path d="M145.008 102.561C146.909 102.561 148.45 101.02 148.45 99.1186C148.45 97.2174 146.909 95.6761 145.008 95.6761C143.106 95.6761 141.565 97.2174 141.565 99.1186C141.565 101.02 143.106 102.561 145.008 102.561Z" fill="white"/>
<path d="M413.329 144.289H355.277V148.652H413.329V144.289Z" fill="#E6E6E6"/>
<path d="M444.922 157.098H355.277V161.461H444.922V157.098Z" fill="#E6E6E6"/>
<path d="M429.268 169.297H356.209V173.66H429.268V169.297Z" fill="#E6E6E6"/>
<path d="M397.927 182.682H355.277V187.046H397.927V182.682Z" fill="#E6E6E6"/>
<path d="M419.648 195.757H355.277V200.12H419.648V195.757Z" fill="#E6E6E6"/>
<path d="M335.926 142.916H328.818V150.024H335.926V142.916Z" fill="#E6E6E6"/>
<path d="M335.926 155.725H328.818V162.834H335.926V155.725Z" fill="#E6E6E6"/>
<path d="M335.926 167.924H328.818V175.033H335.926V167.924Z" fill="#E6E6E6"/>
<path d="M335.926 181.31H328.818V188.418H335.926V181.31Z" fill="#E6E6E6"/>
<path d="M335.926 194.384H328.818V201.493H335.926V194.384Z" fill="#E6E6E6"/>
<path d="M413.329 208.913H355.277V213.276H413.329V208.913Z" fill="#E6E6E6"/>
<path d="M444.922 221.722H355.277V226.086H444.922V221.722Z" fill="#E6E6E6"/>
<path d="M429.268 233.922H356.209V238.285H429.268V233.922Z" fill="#E6E6E6"/>
<path d="M397.927 247.307H355.277V251.67H397.927V247.307Z" fill="#E6E6E6"/>
<path d="M419.648 260.381H355.277V264.745H419.648V260.381Z" fill="#E6E6E6"/>
<path d="M335.926 207.541H328.818V214.649H335.926V207.541Z" fill="#E6E6E6"/>
<path d="M335.926 220.35H328.818V227.458H335.926V220.35Z" fill="#E6E6E6"/>
<path d="M335.926 232.549H328.818V239.657H335.926V232.549Z" fill="#E6E6E6"/>
<path d="M335.926 245.934H328.818V253.043H335.926V245.934Z" fill="#E6E6E6"/>
<path d="M335.926 259.009H328.818V266.117H335.926V259.009Z" fill="#E6E6E6"/>
<path d="M229.682 243.139H171.63V247.502H229.682V243.139Z" fill="#E6E6E6"/>
<path d="M236.921 254.477H163.863V258.84H236.921V254.477Z" fill="#E6E6E6"/>
<path d="M238.387 188.098C238.385 194.656 236.682 201.101 233.444 206.804C230.206 212.507 225.545 217.273 219.915 220.636C214.286 223.999 207.88 225.845 201.323 225.993C194.767 226.141 188.285 224.586 182.509 221.48L182.502 221.472C176.602 218.294 171.65 213.609 168.151 207.893C164.652 202.178 162.73 195.638 162.582 188.938C162.434 182.238 164.065 175.619 167.308 169.755C170.551 163.891 175.291 158.991 181.044 155.555C186.798 152.119 193.359 150.27 200.06 150.195C206.761 150.121 213.362 151.825 219.19 155.132C225.018 158.44 229.865 163.233 233.238 169.024C236.61 174.815 238.387 181.396 238.387 188.098Z" fill="#E6E6E6"/>
<path d="M200.676 186.258C206.366 186.258 210.98 181.644 210.98 175.953C210.98 170.263 206.366 165.649 200.676 165.649C194.985 165.649 190.371 170.263 190.371 175.953C190.371 181.644 194.985 186.258 200.676 186.258Z" fill="white"/>
<path d="M218.27 207.549C206.751 211.592 194.19 211.543 182.702 207.411L182.695 207.406L190.371 192.253H210.98L218.27 207.549Z" fill="white"/>
<path d="M80.227 246.484C52.1056 246.484 29.227 221.587 29.227 190.984C29.227 160.381 52.1056 135.484 80.227 135.484C108.348 135.484 131.227 160.381 131.227 190.984C131.227 221.587 108.348 246.484 80.227 246.484ZM80.227 149.508C59.6536 149.508 42.9159 168.114 42.9159 190.984C42.9159 213.854 59.6536 232.461 80.227 232.461C100.8 232.461 117.538 213.854 117.538 190.984C117.538 168.114 100.8 149.508 80.227 149.508Z" fill="#E5A4ED"/>
<path d="M128.269 342.484H32.1856C23.7126 342.475 15.5893 339.015 9.59801 332.866C3.60667 326.716 0.236552 318.378 0.22702 309.681V212.943C0.233542 206.988 2.54079 201.28 6.64258 197.07C10.7444 192.859 16.3057 190.491 22.1066 190.484H138.347C144.148 190.491 149.71 192.859 153.811 197.07C157.913 201.28 160.221 206.988 160.227 212.943V309.681C160.217 318.378 156.847 326.716 150.856 332.866C144.865 339.015 136.742 342.475 128.269 342.484Z" fill="url(#paint0_linear_2201_58)"/>
<path d="M99.227 245.89C99.2296 242.443 98.3319 239.057 96.6262 236.082C94.9205 233.107 92.4686 230.65 89.523 228.963C86.5773 227.277 83.2444 226.423 79.8675 226.488C76.4906 226.553 73.1918 227.536 70.3108 229.335C67.4298 231.134 65.0707 233.684 63.4766 236.723C61.8824 239.761 61.1108 243.179 61.2412 246.623C61.3716 250.068 62.3992 253.414 64.2183 256.318C66.0374 259.223 68.5822 261.579 71.5906 263.146V293.484H88.8634V263.146C91.9817 261.524 94.6 259.054 96.4289 256.009C98.2578 252.963 99.2262 249.461 99.227 245.89Z" fill="white"/>
<defs>
<linearGradient id="paint0_linear_2201_58" x1="-0.126575" y1="197.825" x2="143.451" y2="328.38" gradientUnits="userSpaceOnUse">
<stop stop-color="#E5A4ED"/>
<stop offset="1" stop-color="#7A5BF5"/>
</linearGradient>
</defs>
</svg>
